<svg xmlns="http://www.w3.org/2000/svg" width="31" height="54" viewBox="0 0 31 54">
  <defs>
    <style>
      .cls-1 {
        fill: #af1d1e;
        fill-rule: evenodd;
      }
    </style>
  </defs>
  <path id="pin_big" class="cls-1" d="M1095.5,1241a15.391,15.391,0,0,0-15.5,15.28c0,0.43.03,0.86,0.06,1.28,0.01,0.16.03,0.31,0.05,0.46,0.03,0.26.06,0.51,0.11,0.76,0.03,0.2.06,0.4,0.1,0.6,0.03,0.13.07,0.27,0.1,0.4,1.41,6.05,6.18,10.9,9.86,19.2a77.294,77.294,0,0,1,2.84,7.57l2.38,8.45,2.37-8.45c0.79-2.43,1.75-5.09,2.85-7.58,3.68-8.3,8.45-13.14,9.86-19.19,0.03-.13.06-0.27,0.09-0.4,0.04-.2.07-0.4,0.11-0.6,0.04-.25.08-0.5,0.11-0.76,0.02-.15.03-0.31,0.05-0.46,0.03-.42.06-0.85,0.06-1.29A15.389,15.389,0,0,0,1095.5,1241Zm0,22.18a6.906,6.906,0,1,1,7-6.91A6.959,6.959,0,0,1,1095.5,1263.18Z" transform="translate(-1080 -1241)"/>
</svg>
